<svg width="20" height="20" viewBox="0 0 20 20" fill="none" xmlns="http://www.w3.org/2000/svg">
  <path fill-rule="evenodd" clip-rule="evenodd" d="M6.66637 4.16706C5.49315 4.16706 4.51748 5.1439 4.51748 6.37957C4.51748 7.61524 5.49315 8.59208 6.66637 8.59208C7.83959 8.59208 8.81526 7.61524 8.81526 6.37957C8.81526 5.1439 7.83959 4.16706 6.66637 4.16706ZM3.23177 6.37957C3.23177 4.46129 4.75591 2.88135 6.66637 2.88135C8.57683 2.88135 10.101 4.46129 10.101 6.37957C10.101 8.29786 8.57683 9.8778 6.66637 9.8778C4.75591 9.8778 3.23177 8.29786 3.23177 6.37957ZM13.5384 6.54539C12.839 6.54539 12.246 7.13039 12.246 7.88448C12.246 8.63856 12.839 9.22356 13.5384 9.22356C14.2378 9.22356 14.8308 8.63856 14.8308 7.88448C14.8308 7.13039 14.2378 6.54539 13.5384 6.54539ZM10.9603 7.88448C10.9603 6.44937 12.1002 5.25968 13.5384 5.25968C14.9766 5.25968 16.1165 6.44937 16.1165 7.88448C16.1165 9.31958 14.9766 10.5093 13.5384 10.5093C12.1002 10.5093 10.9603 9.31958 10.9603 7.88448ZM3.0631 14.4502C2.37795 15.0827 2.11507 15.8271 2.07165 16.2712C2.0371 16.6245 1.72264 16.883 1.36929 16.8484C1.01593 16.8139 0.757489 16.4994 0.792038 16.1461C0.864942 15.4004 1.2651 14.3602 2.19102 13.5055C3.13109 12.6377 4.57338 11.9966 6.66637 11.9966C8.75936 11.9966 10.2017 12.6377 11.1417 13.5055C12.0676 14.3602 12.4678 15.4004 12.5407 16.1461C12.5753 16.4994 12.3168 16.8139 11.9635 16.8484C11.6101 16.883 11.2956 16.6245 11.2611 16.2712C11.2177 15.8271 10.9548 15.0827 10.2696 14.4502C9.59863 13.8308 8.48182 13.2823 6.66637 13.2823C4.85092 13.2823 3.73411 13.8308 3.0631 14.4502ZM12.6927 12.6394C12.6927 12.2844 12.9805 11.9966 13.3355 11.9966C15.4285 11.9966 16.8708 12.6377 17.8109 13.5055C18.7368 14.3602 19.137 15.4004 19.2099 16.1461C19.2444 16.4994 18.986 16.8139 18.6326 16.8484C18.2793 16.883 17.9648 16.6245 17.9303 16.2712C17.8869 15.8271 17.624 15.0827 16.9388 14.4502C16.2678 13.8308 15.151 13.2823 13.3355 13.2823C12.9805 13.2823 12.6927 12.9945 12.6927 12.6394Z" fill="white" />
</svg>