<svg width="19" height="24" viewBox="0 0 19 24" fill="none" xmlns="http://www.w3.org/2000/svg">
<path fillRule="evenodd" clipRule="evenodd" d="M9.73308 1.89998C9.2655 1.89998 8.88646 2.27902 8.88646 2.7466V3.27096H10.5797V2.7466C10.5797 2.27902 10.2007 1.89998 9.73308 1.89998ZM12.3797 3.27096V2.7466C12.3797 1.28491 11.1948 0.0999756 9.73308 0.0999756C8.27139 0.0999756 7.08646 1.28491 7.08646 2.7466V3.27096H4.96514C2.27818 3.27096 0.0999756 5.44916 0.0999756 8.13612V18.7032C0.0999756 21.3902 2.27819 23.5684 4.96514 23.5684H14.002C16.6889 23.5684 18.8671 21.3902 18.8671 18.7032V8.13612C18.8671 5.44917 16.6889 3.27096 14.002 3.27096H12.3797ZM4.96514 5.07096C3.27229 5.07096 1.89998 6.44328 1.89998 8.13612V18.7032C1.89998 20.396 3.2723 21.7684 4.96514 21.7684H14.002C15.6948 21.7684 17.0671 20.3961 17.0671 18.7032V8.13612C17.0671 6.44328 15.6948 5.07096 14.002 5.07096H4.96514ZM4.59129 8.92744C4.59129 8.43038 4.99423 8.02744 5.49129 8.02744H13.4758C13.9729 8.02744 14.3758 8.43038 14.3758 8.92744C14.3758 9.42449 13.9729 9.82744 13.4758 9.82744H5.49129C4.99423 9.82744 4.59129 9.42449 4.59129 8.92744ZM4.59129 12.6269C4.59129 12.1299 4.99423 11.7269 5.49129 11.7269H13.4758C13.9729 11.7269 14.3758 12.1299 14.3758 12.6269C14.3758 13.124 13.9729 13.5269 13.4758 13.5269H5.49129C4.99423 13.5269 4.59129 13.124 4.59129 12.6269ZM6.08839 16.3264C6.08839 15.8293 6.49133 15.4264 6.98839 15.4264H11.9787C12.4758 15.4264 12.8787 15.8293 12.8787 16.3264C12.8787 16.8235 12.4758 17.2264 11.9787 17.2264H6.98839C6.49133 17.2264 6.08839 16.8235 6.08839 16.3264Z" fill="white"/>
</svg>
