<svg width="24" height="24" viewBox="0 0 24 24" fill="none" xmlns="http://www.w3.org/2000/svg">
<path d="M15.4495 8.66529L10.0919 14.0615L8.36756 12.3372C8.0981 12.0677 7.66122 12.0677 7.39176 12.3372C7.12231 12.6067 7.12231 13.0435 7.39177 13.313L9.59958 15.5208C9.72492 15.6462 9.90838 15.761 10.0875 15.761C10.2669 15.761 10.4456 15.6456 10.5692 15.5269L10.5692 15.5269L10.5709 15.5253L16.4279 9.63762C16.6939 9.37022 16.6958 8.93873 16.4321 8.66905C16.163 8.39384 15.7207 8.39215 15.4495 8.66529Z" fill="white" stroke="white" stroke-width="0.2"/>
<path d="M12 2.15C6.55883 2.15 2.15 6.55883 2.15 12C2.15 17.4412 6.55883 21.85 12 21.85C17.4412 21.85 21.85 17.4412 21.85 12C21.85 6.55883 17.4412 2.15 12 2.15ZM12 20.8391C7.12863 20.8391 3.16094 16.876 3.16094 12C3.16094 7.12863 7.12401 3.16094 12 3.16094C16.8714 3.16094 20.8391 7.12401 20.8391 12C20.8391 16.8713 16.8713 20.8391 12 20.8391Z" fill="white" stroke="white" stroke-width="0.2"/>
</svg>
