<svg width="36" height="36" viewBox="0 0 36 36" fill="none" xmlns="http://www.w3.org/2000/svg">
<circle cx="18" cy="18" r="18" fill="white"/>
<path fill-rule="evenodd" clip-rule="evenodd" d="M10.3266 7.04308C12.8292 5.25211 15.8762 4.38314 18.9484 4.58424C22.0207 4.78534 24.928 6.04406 27.1751 8.14593C29.4222 10.2478 30.8701 13.0628 31.2719 16.1112C31.6738 19.1596 31.0048 22.2529 29.379 24.864C27.7532 27.4751 25.2711 29.4424 22.3557 30.4307C19.4403 31.4191 16.2719 31.3673 13.3904 30.2842C12.1354 29.8125 10.9685 29.1578 9.924 28.349L10.624 27.65L12.6824 29.6904C12.8623 29.8687 13.1527 29.8687 13.3326 29.6904L16.723 26.3297L18.6409 26.9823C18.8069 27.0387 18.9905 26.9964 19.1149 26.8731L19.8663 26.1283C19.9536 26.0418 20.0027 25.924 20.0027 25.8012C20.0027 25.6783 19.9536 25.5606 19.8663 25.474L17.1875 22.8187C17.0075 22.6403 16.7172 22.6403 16.5372 22.8187L13.8242 25.508L13.1582 24.8477L17.9134 20.1062H26.1189C26.2412 20.1062 26.3585 20.0577 26.445 19.9714L28.7661 17.6571H29.0784C29.3333 17.6571 29.5399 17.4507 29.5399 17.1961V14.722C29.5399 14.5998 29.4914 14.4827 29.4049 14.3962L27.2226 12.2151C27.1518 12.1442 27.0597 12.0984 26.9604 12.0844L17.6777 10.7823C17.5273 10.7612 17.3761 10.8154 17.2734 10.9272L11.9387 16.7352H8.06262C8.23332 15.1995 8.75609 13.7218 9.59235 12.4178C10.4951 11.0102 11.7348 9.84923 13.1994 9.03992C14.6641 8.23061 16.3075 7.79841 17.9813 7.78237C19.4282 7.76849 20.8584 8.06597 22.1755 8.65143C22.1603 8.71774 22.1523 8.78679 22.1523 8.8577C22.1523 9.36683 22.5656 9.77956 23.0754 9.77956C23.5852 9.77956 23.9985 9.36683 23.9985 8.8577C23.9985 8.34858 23.5852 7.93584 23.0754 7.93584C22.8628 7.93584 22.667 8.00763 22.5109 8.12825C21.0899 7.48173 19.5419 7.1528 17.9754 7.16782C16.1994 7.18485 14.4556 7.64344 12.9015 8.50217C11.3474 9.3609 10.032 10.5927 9.07414 12.0864C8.17451 13.4892 7.6168 15.0814 7.44367 16.7352H4.30916C4.05426 16.7352 3.84762 16.9416 3.84762 17.1961C3.84762 17.4507 4.05426 17.6571 4.30916 17.6571H12.1417C12.271 17.6571 12.3944 17.6029 12.4818 17.5077L17.7896 11.7289L26.6789 12.9759L28.6168 14.9128V16.7352H19.6939L18.6613 15.7032V14.722C18.6613 14.4675 18.4547 14.2611 18.1998 14.2611C17.9449 14.2611 17.7383 14.4675 17.7383 14.722V15.894C17.7383 16.0161 17.7868 16.1333 17.8733 16.2198L19.1761 17.5219C19.2627 17.6084 19.3801 17.6571 19.5026 17.6571H27.4596L25.9279 19.1843H17.7225C17.6002 19.1843 17.4829 19.2328 17.3964 19.3191L12.5217 24.1797L11.1879 22.7976C11.1009 22.7075 10.981 22.6565 10.8556 22.6565H9.00056C8.74566 22.6565 8.53902 22.8629 8.53902 23.1175C8.53902 23.372 8.74566 23.5784 9.00056 23.5784H10.6594L12.1134 25.085C12.1341 25.1225 12.1604 25.1576 12.1924 25.1892L13.4991 26.4845C13.679 26.6629 13.9694 26.6629 14.1494 26.4845L16.8624 23.7953L18.886 25.8012L18.6678 26.0175L16.7499 25.3649C16.5839 25.3084 16.4003 25.3507 16.2759 25.474L13.0075 28.7138L10.9479 26.6722C10.7674 26.4933 10.4761 26.4939 10.2964 26.6734L9.21169 27.7566C8.2641 26.9111 7.43691 25.9294 6.76037 24.837C6.90614 24.5667 6.91246 24.2295 6.74748 23.9441C6.49428 23.5061 5.93351 23.3561 5.49496 23.6089C5.05641 23.8618 4.90616 24.4218 5.15935 24.8598C5.33247 25.1593 5.64936 25.3241 5.97266 25.3176C7.62446 27.9869 10.1172 30.0389 13.0653 31.147C16.1466 32.3052 19.5348 32.3606 22.6524 31.3037C25.77 30.2468 28.4243 28.143 30.1629 25.3508C31.9015 22.5586 32.6168 19.2508 32.1871 15.9909C31.7574 12.731 30.2091 9.72076 27.8061 7.4731C25.4031 5.22543 22.2941 3.8794 19.0088 3.66435C15.7235 3.44931 12.4652 4.37855 9.78897 6.29375C7.11279 8.20895 5.18434 10.9916 4.33221 14.1676C4.26624 14.4135 4.41235 14.6662 4.65857 14.7321C4.90478 14.798 5.15786 14.6521 5.22383 14.4062C6.02069 11.4362 7.82405 8.83405 10.3266 7.04308ZM19.9236 13.3135C19.7112 13.3135 19.539 13.4855 19.539 13.6976C19.539 13.9097 19.7112 14.0817 19.9236 14.0817H22.6159C22.8284 14.0817 23.0006 13.9097 23.0006 13.6976C23.0006 13.4855 22.8284 13.3135 22.6159 13.3135H19.9236ZM3.771 20.1118C3.771 20.6421 4.18427 21.072 4.69407 21.072C5.08659 21.072 5.42189 20.8172 5.55539 20.4578H12.695C12.7766 20.4578 12.8548 20.4255 12.9125 20.3678L15.1433 18.14C15.2635 18.02 15.2635 17.8254 15.1433 17.7054C15.0232 17.5854 14.8283 17.5854 14.7082 17.7054L12.5675 19.8433H5.58058C5.46892 19.4436 5.11429 19.1515 4.69407 19.1515C4.18427 19.1515 3.771 19.5814 3.771 20.1118ZM22.1547 27.7556C22.1547 28.2647 21.7414 28.6774 21.2316 28.6774C20.7218 28.6774 20.3086 28.2647 20.3086 27.7556C20.3086 27.2465 20.7218 26.8337 21.2316 26.8337C21.4987 26.8337 21.7393 26.947 21.9078 27.128C24.2264 26.1733 26.1097 24.3844 27.1785 22.1069C27.2506 21.9532 27.4338 21.887 27.5877 21.9591C27.7416 22.0311 27.8079 22.214 27.7357 22.3677C26.603 24.7813 24.6084 26.6778 22.1525 27.692C22.154 27.713 22.1547 27.7342 22.1547 27.7556Z" fill="black"/>
</svg>
