<svg width="32" height="32" viewBox="0 0 32 32" fill="none" xmlns="http://www.w3.org/2000/svg">
<g clip-path="url(#clip0_1503_2667)">
<g clip-path="url(#clip1_1503_2667)">
<g clip-path="url(#clip2_1503_2667)">
<mask id="mask0_1503_2667" style="mask-type:luminance" maskUnits="userSpaceOnUse" x="0" y="0" width="32" height="32">
<path d="M32 0H0V32H32V0Z" fill="white"/>
</mask>
<g mask="url(#mask0_1503_2667)">
<path d="M16 31.746C24.8366 31.746 32 24.6394 32 15.873C32 7.10659 24.8366 0 16 0C7.16344 0 0 7.10659 0 15.873C0 24.6394 7.16344 31.746 16 31.746Z" fill="#627EEA"/>
<path d="M16.5 3.96484V12.7649L23.997 16.0888L16.5 3.96484Z" fill="white" fill-opacity="0.602"/>
<path d="M16.497 3.96484L9 16.0888L16.497 12.7649V3.96484Z" fill="white"/>
<path d="M16.5 21.7903V27.7698L24.0014 17.4727L16.5 21.7903Z" fill="white" fill-opacity="0.602"/>
<path d="M16.497 27.7698V21.7903L9 17.4727L16.497 27.7698Z" fill="white"/>
<path d="M16.5 20.4071L23.997 16.0895L16.5 12.7656V20.4071Z" fill="white" fill-opacity="0.2"/>
<path d="M9 16.0895L16.497 20.4071V12.7656L9 16.0895Z" fill="white" fill-opacity="0.602"/>
</g>
</g>
</g>
</g>
<defs>
<clipPath id="clip0_1503_2667">
<rect width="32" height="32" fill="white"/>
</clipPath>
<clipPath id="clip1_1503_2667">
<rect width="32" height="32" fill="white"/>
</clipPath>
<clipPath id="clip2_1503_2667">
<rect width="32" height="32" fill="white"/>
</clipPath>
</defs>
</svg>
