<svg width="32" height="32" viewBox="0 0 32 32" fill="none" xmlns="http://www.w3.org/2000/svg">
<g clip-path="url(#clip0_1503_2683)">
<g clip-path="url(#clip1_1503_2683)">
<g clip-path="url(#clip2_1503_2683)">
<mask id="mask0_1503_2683" style="mask-type:luminance" maskUnits="userSpaceOnUse" x="0" y="0" width="32" height="32">
<path d="M32 0H0V32H32V0Z" fill="white"/>
</mask>
<g mask="url(#mask0_1503_2683)">
<path d="M16 0C24.8362 0 32 7.16384 32 16C32 24.8362 24.8358 32 16 32C7.16416 32 0 24.8381 0 16C0 7.16192 7.16288 0 16 0Z" fill="#53AE94"/>
<path d="M17.9781 13.87V11.4899H23.4209V7.86328H8.59985V11.4899H14.0433V13.8681C9.61936 14.0713 6.29297 14.9475 6.29297 15.9971C6.29297 17.0467 9.62097 17.9228 14.0433 18.1273V25.7513H17.9793V18.1267C22.3953 17.9228 25.715 17.0473 25.715 15.9987C25.715 14.95 22.3953 14.0745 17.9793 13.8707M17.9793 17.4809V17.479C17.8683 17.486 17.2977 17.5203 16.0273 17.5203C15.0117 17.5203 14.2971 17.4915 14.0453 17.4783V17.4815C10.1368 17.3084 7.21937 16.6278 7.21937 15.8134C7.21937 14.999 10.1371 14.3193 14.0453 14.1459V16.8035C14.3013 16.8211 15.0334 16.8643 16.044 16.8643C17.2577 16.8643 17.868 16.8137 17.98 16.8035V14.1459C21.8808 14.3196 24.7915 15.0009 24.7915 15.8124C24.7915 16.6239 21.8788 17.3052 17.9793 17.479" fill="white"/>
</g>
</g>
</g>
</g>
<defs>
<clipPath id="clip0_1503_2683">
<rect width="32" height="32" fill="white"/>
</clipPath>
<clipPath id="clip1_1503_2683">
<rect width="32" height="32" fill="white"/>
</clipPath>
<clipPath id="clip2_1503_2683">
<rect width="32" height="32" fill="white"/>
</clipPath>
</defs>
</svg>
