<svg width="24" height="24" viewBox="0 0 24 24" fill="none" xmlns="http://www.w3.org/2000/svg">
<path fill-rule="evenodd" clip-rule="evenodd" d="M12 24C18.6274 24 24 18.6274 24 12C24 5.37258 18.6274 0 12 0C5.37258 0 0 5.37258 0 12C0 18.6274 5.37258 24 12 24Z" fill="#23B95E"/>
<path fill-rule="evenodd" clip-rule="evenodd" d="M18.4495 7.87313C18.9062 8.35342 18.8871 9.11297 18.4068 9.56964L10.8344 16.7697C10.6034 16.9893 10.2945 17.108 9.9759 17.0996C9.65729 17.0912 9.3551 16.9564 9.13599 16.7249L5.72841 13.1249C5.27282 12.6436 5.29367 11.8841 5.77499 11.4285C6.2563 10.9729 7.01581 10.9938 7.4714 11.4751L10.0522 14.2017L16.753 7.83036C17.2333 7.37369 17.9929 7.39284 18.4495 7.87313Z" fill="white"/>
</svg>
