       <svg
                width="29"
                height="28"
                viewBox="0 0 29 28"
                fill="none"
                xmlns="http://www.w3.org/2000/svg"
              >
                <g clip-path="url(#clip0_8_1849)">
                  <path
                    d="M28.2211 8.4008C28.2211 8.4008 27.9477 6.47033 27.1055 5.62267C26.0391 4.50705 24.8469 4.50158 24.3 4.43596C20.3844 4.15158 14.5055 4.15158 14.5055 4.15158H14.4945C14.4945 4.15158 8.61562 4.15158 4.7 4.43596C4.15313 4.50158 2.96094 4.50705 1.89453 5.62267C1.05234 6.47033 0.784375 8.4008 0.784375 8.4008C0.784375 8.4008 0.5 10.6703 0.5 12.9344V15.0563C0.5 17.3203 0.778906 19.5899 0.778906 19.5899C0.778906 19.5899 1.05234 21.5203 1.88906 22.368C2.95547 23.4836 4.35547 23.4453 4.97891 23.5656C7.22109 23.7789 14.5 23.8445 14.5 23.8445C14.5 23.8445 20.3844 23.8336 24.3 23.5547C24.8469 23.4891 26.0391 23.4836 27.1055 22.368C27.9477 21.5203 28.2211 19.5899 28.2211 19.5899C28.2211 19.5899 28.5 17.3258 28.5 15.0563V12.9344C28.5 10.6703 28.2211 8.4008 28.2211 8.4008ZM11.607 17.632V9.76252L19.1703 13.711L11.607 17.632Z"
                    fill="#06DE5B"
                  />
                </g>
                <defs>
                  <clipPath id="clip0_8_1849">
                    <rect
                      width="28"
                      height="28"
                      fill="white"
                      transform="translate(0.5 0.000732422)"
                    />
                  </clipPath>
                </defs>
              </svg>