<svg width="50" height="50" viewBox="0 0 50 50" fill="none" xmlns="http://www.w3.org/2000/svg">
<path d="M18.9375 18.75C19.4273 17.3576 20.3941 16.1836 21.6666 15.4357C22.9391 14.6878 24.4352 14.4145 25.89 14.664C27.3447 14.9135 28.6642 15.6698 29.6147 16.799C30.5653 17.9282 31.0855 19.3573 31.0833 20.8333C31.0833 25 24.8333 27.0833 24.8333 27.0833M25 35.4167H25.0208M16.25 43.75H33.75C37.2503 43.75 39.0005 43.75 40.3374 43.0688C41.5135 42.4696 42.4696 41.5135 43.0688 40.3374C43.75 39.0005 43.75 37.2503 43.75 33.75V16.25C43.75 12.7497 43.75 10.9995 43.0688 9.66256C42.4696 8.48655 41.5135 7.53042 40.3374 6.93121C39.0005 6.25 37.2503 6.25 33.75 6.25H16.25C12.7497 6.25 10.9995 6.25 9.66256 6.93121C8.48655 7.53042 7.53042 8.48655 6.93121 9.66256C6.25 10.9995 6.25 12.7497 6.25 16.25V33.75C6.25 37.2503 6.25 39.0005 6.93121 40.3374C7.53042 41.5135 8.48655 42.4696 9.66256 43.0688C10.9995 43.75 12.7497 43.75 16.25 43.75Z" stroke="#F5A300" stroke-width="3" stroke-linecap="round" stroke-linejoin="round"/>
</svg>
