<svg width="50" height="50" viewBox="0 0 50 50" fill="none" xmlns="http://www.w3.org/2000/svg">
<path d="M24.9998 45.8337C36.5058 45.8337 45.8332 36.5063 45.8332 25.0003C45.8332 13.4944 36.5058 4.16699 24.9998 4.16699C13.4939 4.16699 4.1665 13.4944 4.1665 25.0003C4.1665 36.5063 13.4939 45.8337 24.9998 45.8337Z" stroke="#F5A300" stroke-width="3" stroke-linecap="round" stroke-linejoin="round"/>
<path d="M30.6709 17.2211C31.6887 16.8818 32.1976 16.7122 32.536 16.8329C32.8305 16.9379 33.0623 17.1696 33.1673 17.4641C33.288 17.8026 33.1183 18.3115 32.7791 19.3293L29.68 28.6264C29.5834 28.9163 29.5351 29.0612 29.4528 29.1816C29.3798 29.2882 29.2877 29.3803 29.1811 29.4532C29.0607 29.5356 28.9158 29.5839 28.6259 29.6805L19.3288 32.7796C18.311 33.1188 17.8021 33.2885 17.4636 33.1678C17.1691 33.0628 16.9374 32.831 16.8324 32.5365C16.7117 32.1981 16.8813 31.6892 17.2206 30.6714L20.3196 21.3742C20.4163 21.0844 20.4646 20.9394 20.5469 20.8191C20.6198 20.7124 20.712 20.6203 20.8186 20.5474C20.9389 20.4651 21.0839 20.4168 21.3737 20.3201L30.6709 17.2211Z" stroke="#F5A300" stroke-width="3" stroke-linecap="round" stroke-linejoin="round"/>
</svg>
