<svg width="50" height="50" viewBox="0 0 50 50" fill="none" xmlns="http://www.w3.org/2000/svg">
<path d="M27.3804 43.7499C22.5158 40.7162 19.276 35.3171 19.276 29.16C19.276 25.9965 21.84 23.4325 25.0016 23.4325C28.1631 23.4325 30.7271 25.9965 30.7271 29.16C30.7271 32.3235 33.2911 34.8875 36.4527 34.8875C39.6143 34.8875 42.1783 32.3235 42.1783 29.16C42.1783 19.6696 34.4882 11.9775 25.0035 11.9775C15.5187 11.9775 7.82861 19.6696 7.82861 29.16C7.82861 31.2754 8.06535 33.3354 8.50064 35.3209M17.6879 42.2894C15.0819 38.5703 13.5488 34.0456 13.5488 29.1601C13.5488 22.8331 18.6749 17.7051 24.9981 17.7051C31.3212 17.7051 36.4473 22.8331 36.4473 29.1601M37.068 40.5846C36.8618 40.596 36.6594 40.6151 36.4513 40.6151C30.1282 40.6151 25.0021 35.4871 25.0021 29.1601M40.986 13.4934C37.0818 9.05838 31.3734 6.25 25.0006 6.25C18.6278 6.25 12.9194 9.05838 9.01514 13.4934" stroke="#F5A300" stroke-width="3" stroke-linecap="round" stroke-linejoin="round"/>
</svg>
