<svg width="50" height="50" viewBox="0 0 50 50" fill="none" xmlns="http://www.w3.org/2000/svg">
<path d="M18.7502 24.9999L22.9168 29.1666L31.2502 20.8333M41.6668 24.9999C41.6668 34.2939 30.2919 41.0286 26.3365 43.0895C25.9086 43.3124 25.6947 43.4238 25.398 43.4816C25.1668 43.5265 24.8335 43.5265 24.6023 43.4816C24.3056 43.4238 24.0917 43.3124 23.6639 43.0895C19.7084 41.0286 8.3335 34.2939 8.3335 24.9999V17.1199C8.3335 15.4543 8.3335 14.6215 8.60591 13.9056C8.84657 13.2731 9.23763 12.7088 9.74528 12.2615C10.3199 11.755 11.0997 11.4626 12.6593 10.8777L23.8298 6.68884C24.2629 6.52642 24.4794 6.44521 24.7022 6.41302C24.8998 6.38446 25.1005 6.38446 25.2981 6.41302C25.5209 6.44521 25.7375 6.52642 26.1706 6.68884L37.341 10.8777C38.9006 11.4626 39.6804 11.755 40.255 12.2615C40.7627 12.7088 41.1538 13.2731 41.3944 13.9056C41.6668 14.6215 41.6668 15.4543 41.6668 17.1199V24.9999Z" stroke="#F5A300" stroke-width="3" stroke-linecap="round" stroke-linejoin="round"/>
</svg>
