<svg width="50" height="50" viewBox="0 0 50 50" fill="none" xmlns="http://www.w3.org/2000/svg">
<path d="M12.4998 41.8481H17.9379C18.647 41.8481 19.3517 41.9325 20.039 42.1012L25.785 43.4975C27.0318 43.8013 28.3306 43.8308 29.5904 43.5861L35.9435 42.3501C37.6218 42.0232 39.1656 41.2195 40.3755 40.0426L44.8704 35.6701C46.1541 34.4235 46.1541 32.4008 44.8704 31.1521C43.7147 30.0279 41.8847 29.9013 40.5772 30.8547L35.3386 34.6766C34.5883 35.2251 33.6755 35.5203 32.7366 35.5203H27.678L30.8979 35.5202C32.7128 35.5202 34.1829 34.0901 34.1829 32.3247V31.6856C34.1829 30.2197 33.1573 28.9414 31.6958 28.5871L26.7261 27.3785C25.9173 27.1823 25.089 27.0832 24.2564 27.0832C22.2464 27.0832 18.6079 28.7474 18.6079 28.7474L12.4998 31.3017M4.1665 30.4165L4.1665 42.4999C4.1665 43.6666 4.1665 44.25 4.39357 44.6957C4.59331 45.0877 4.91202 45.4064 5.30402 45.6061C5.74967 45.8332 6.33306 45.8332 7.49984 45.8332H9.1665C10.3333 45.8332 10.9167 45.8332 11.3623 45.6061C11.7543 45.4064 12.073 45.0877 12.2728 44.6957C12.4998 44.25 12.4998 43.6666 12.4998 42.4999V30.4165C12.4998 29.2498 12.4998 28.6664 12.2728 28.2207C12.073 27.8287 11.7543 27.51 11.3623 27.3103C10.9167 27.0832 10.3333 27.0832 9.1665 27.0832H7.49984C6.33306 27.0832 5.74967 27.0832 5.30402 27.3103C4.91202 27.51 4.59331 27.8287 4.39357 28.2207C4.1665 28.6664 4.1665 29.2498 4.1665 30.4165ZM35.8152 7.48373C34.5718 4.88194 31.7052 3.50358 28.9174 4.83397C26.1296 6.16436 24.9419 9.3194 26.1091 12.0891C26.8305 13.8008 28.8972 17.1249 30.3709 19.4145C30.9153 20.2605 31.1876 20.6835 31.5852 20.931C31.9263 21.1432 32.3533 21.2576 32.7548 21.2444C33.2229 21.2289 33.6702 20.9987 34.5647 20.5383C36.9858 19.2922 40.4376 17.4468 41.9182 16.3251C44.3139 14.5101 44.9073 11.174 43.1137 8.63786C41.3201 6.10175 38.1929 5.8522 35.8152 7.48373Z" stroke="#F5A300" stroke-width="3" stroke-linecap="round" stroke-linejoin="round"/>
</svg>
