<svg width="50" height="50" viewBox="0 0 50 50" fill="none" xmlns="http://www.w3.org/2000/svg">
<path d="M31.25 18.75H31.2708M31.25 31.25C38.1536 31.25 43.75 25.6536 43.75 18.75C43.75 11.8464 38.1536 6.25 31.25 6.25C24.3464 6.25 18.75 11.8464 18.75 18.75C18.75 19.3202 18.7882 19.8814 18.8621 20.4313C18.9837 21.3358 19.0445 21.788 19.0036 22.0741C18.9609 22.3722 18.9067 22.5328 18.7598 22.7956C18.6187 23.0479 18.3702 23.2964 17.8732 23.7935L7.22631 34.4404C6.86599 34.8007 6.68584 34.9808 6.557 35.1911C6.44277 35.3775 6.3586 35.5807 6.30756 35.7933C6.25 36.033 6.25 36.2878 6.25 36.7974V40.4167C6.25 41.5834 6.25 42.1668 6.47707 42.6125C6.67681 43.0045 6.99552 43.3232 7.38752 43.5229C7.83317 43.75 8.41656 43.75 9.58333 43.75H13.2026C13.7122 43.75 13.967 43.75 14.2067 43.6924C14.4193 43.6414 14.6225 43.5572 14.8089 43.443C15.0192 43.3142 15.1993 43.134 15.5596 42.7737L26.2065 32.1268C26.7036 31.6298 26.9521 31.3812 27.2044 31.2402C27.4672 31.0933 27.6278 31.0391 27.9259 30.9964C28.212 30.9555 28.6642 31.0163 29.5687 31.1379C30.1186 31.2118 30.6798 31.25 31.25 31.25Z" stroke="#F5A300" stroke-width="3" stroke-linecap="round" stroke-linejoin="round"/>
</svg>
