<svg width="50" height="50" viewBox="0 0 50 50" fill="none" xmlns="http://www.w3.org/2000/svg">
<path d="M45.8332 21.8747L44.8448 13.9677C44.4571 10.8664 44.2633 9.3157 43.5335 8.14717C42.8905 7.11763 41.9616 6.29761 40.8602 5.78726C39.6102 5.20801 38.0475 5.20801 34.922 5.20801H15.0777C11.9522 5.20801 10.3895 5.20801 9.13946 5.78726C8.03812 6.29761 7.10922 7.11763 6.4662 8.14717C5.73638 9.3157 5.54254 10.8664 5.15488 13.9677L4.1665 21.8747M11.4582 30.208H38.5415M11.4582 30.208C7.43109 30.208 4.1665 26.9434 4.1665 22.9163C4.1665 18.8893 7.43109 15.6247 11.4582 15.6247H38.5415C42.5686 15.6247 45.8332 18.8893 45.8332 22.9163C45.8332 26.9434 42.5686 30.208 38.5415 30.208M11.4582 30.208C7.43109 30.208 4.1665 33.4726 4.1665 37.4997C4.1665 41.5268 7.43109 44.7913 11.4582 44.7913H38.5415C42.5686 44.7913 45.8332 41.5268 45.8332 37.4997C45.8332 33.4726 42.5686 30.208 38.5415 30.208M12.4998 22.9163H12.5207M12.4998 37.4997H12.5207M24.9998 22.9163H37.4998M24.9998 37.4997H37.4998" stroke="#F5A300" stroke-width="3" stroke-linecap="round" stroke-linejoin="round"/>
</svg>
