<svg width="50" height="50" viewBox="0 0 50 50" fill="none" xmlns="http://www.w3.org/2000/svg">
<path d="M17.8958 28.1457L32.125 36.4373M32.1042 13.5623L17.8958 21.854M43.75 10.4165C43.75 13.8683 40.9518 16.6665 37.5 16.6665C34.0482 16.6665 31.25 13.8683 31.25 10.4165C31.25 6.96472 34.0482 4.1665 37.5 4.1665C40.9518 4.1665 43.75 6.96472 43.75 10.4165ZM18.75 24.9998C18.75 28.4516 15.9518 31.2498 12.5 31.2498C9.04822 31.2498 6.25 28.4516 6.25 24.9998C6.25 21.5481 9.04822 18.7498 12.5 18.7498C15.9518 18.7498 18.75 21.5481 18.75 24.9998ZM43.75 39.5832C43.75 43.0349 40.9518 45.8332 37.5 45.8332C34.0482 45.8332 31.25 43.0349 31.25 39.5832C31.25 36.1314 34.0482 33.3332 37.5 33.3332C40.9518 33.3332 43.75 36.1314 43.75 39.5832Z" stroke="#F5A300" stroke-width="3" stroke-linecap="round" stroke-linejoin="round"/>
</svg>
